<?xml version="1.0" encoding="utf-8"?>
<!-- Generator: Adobe Illustrator 18.1.0, SVG Export Plug-In . SVG Version: 6.00 Build 0)  -->
<!DOCTYPE svg PUBLIC "-//W3C//DTD SVG 1.1//EN" "http://www.w3.org/Graphics/SVG/1.1/DTD/svg11.dtd">
<svg version="1.1" id="Layer_1" xmlns="http://www.w3.org/2000/svg" xmlns:xlink="http://www.w3.org/1999/xlink" x="0px" y="0px"
	 viewBox="0 0 960 130" enable-background="new 0 0 960 130" xml:space="preserve">
<g>
	<g>
		<path fill="#666666" d="M224.3,35.4c18.7,0,30.1,13.9,30.1,35c0,20.9-11.3,34.6-30.1,34.6s-30.1-13.7-30.1-34.6
			C194.2,49.4,205.7,35.4,224.3,35.4z M224.3,97.9c12.8,0,21.5-10.5,21.5-27.6c0-17.4-8.4-27.9-21.5-27.9
			c-13.1,0-21.5,10.6-21.5,27.9S211.5,97.9,224.3,97.9z"/>
		<path fill="#666666" d="M275.3,91.5v38.3h-8.2V37h8.2v11.8c3.2-7.4,11-13.4,21.6-13.4c16.7,0,28,12.7,28,35
			c0,22-11.3,34.6-27.7,34.6C286.1,105,278.5,99,275.3,91.5z M295.7,97.9c13.1,0,20.6-10,20.6-27.7c0-18-8.1-27.6-20.9-27.6
			c-12.4,0-20.3,9.6-20.3,27.7C275,88.1,283,97.9,295.7,97.9z"/>
		<path fill="#666666" d="M418.1,87c-3.8,7.5-12,18-28.9,18c-18.7,0-30.7-12.7-30.7-35.3c0-20.2,12.1-34.3,30-34.3
			c19.2,0,29,14.8,29,34.4V71h-50.5v1c0,17.3,10,25.8,22.4,25.8c12.7,0,19.2-8.4,22.3-14.8L418.1,87z M367.4,64.3h41.3
			c0-10.7-7.2-22-20.1-22C376.4,42.3,368.5,50.9,367.4,64.3z"/>
		<path fill="#666666" d="M482.3,103.3h-8.2V67.6c0-10.5-0.7-16.6-4.2-20.3c-2.5-2.8-6.4-4.3-11.8-4.3c-6,0-10.5,2.1-13.5,5.4
			c-3.9,4-5.6,9.9-5.6,15.5v39.4h-8.2V37h8.2v11c2.5-6.4,9.8-12.5,21-12.5c6.8,0,12.5,2.1,16.4,6.4c4.2,4.7,5.9,9.2,5.9,24V103.3z"
			/>
		<path fill="#0087CC" d="M514.3,65.4v37.9h-16.7V8.5h34.7c8.1,0,16.6,0.1,23.8,4.3c8.4,4.9,13.5,12.7,13.5,24.3
			c0,10.5-4.9,18.1-12.5,23.3c-2.2,1.4-5.2,2.5-7.4,3.3l23.7,39.6h-19.9l-22-37.9H514.3z M514.3,50.3h18c6.8,0,10.5-0.6,13.4-1.8
			c4.2-2,6.7-6.7,6.7-11.8c0-5.2-2.5-9.8-6.7-11.6c-2.9-1.3-6.6-1.8-13.4-1.8h-18V50.3z"/>
		<path fill="#0087CC" d="M635.1,88.2c-2.9,4.6-11.8,16.7-31.2,16.7c-19.7,0-33-13.9-33-35.4c0-20.5,14.1-34.1,32.6-34.1
			c21.2,0,31.4,14.6,31.4,35c0,1.1-0.1,2.9-0.1,4h-48.4c1.1,9.1,6.7,16.9,18.4,16.9c12,0,17.3-8.1,19.4-11.4L635.1,88.2z
			 M586.8,62.6h32.3c-0.4-8.6-6.7-14.5-15.6-14.5C594.4,48.1,587.2,54.7,586.8,62.6z"/>
		<path fill="#0087CC" d="M695.2,37l-21.9,66.3h-16.6L635.1,37h16.4l10.2,34.4c2.1,6.8,3.6,13.2,3.6,13.2h0.1c0,0,1.4-6.4,3.5-13.7
			l9.9-34H695.2z"/>
		<path fill="#0087CC" d="M718.8,103.3h-15.9V37h15.9V103.3z M719.6,21.1c0-4.9-3.9-8.8-8.8-8.8s-8.8,3.9-8.8,8.8s3.9,8.8,8.8,8.8
			S719.6,26,719.6,21.1z"/>
		<path fill="#0087CC" d="M792.3,88.2c-2.9,4.6-11.8,16.7-31.2,16.7c-19.7,0-33-13.9-33-35.4c0-20.5,14.1-34.1,32.6-34.1
			c21.2,0,31.4,14.6,31.4,35c0,1.1-0.1,2.9-0.1,4h-48.4c1.1,9.1,6.7,16.9,18.4,16.9c12,0,17.3-8.1,19.4-11.4L792.3,88.2z
			 M743.9,62.6h32.3c-0.4-8.6-6.7-14.5-15.6-14.5C751.6,48.1,744.4,54.7,743.9,62.6z"/>
		<path fill="#0087CC" d="M845,77.9c-1.8-6.4-3.9-15.3-5-22.2h-0.1c-1.4,6.6-3.3,15.5-5.3,22.4l-7.4,25.1h-15.7L792.3,37h16.2
			l7.8,29.3c1.7,6.6,3.2,11.8,4.5,18.7h0.1c1.3-6.6,2.4-11.3,4.5-19.1L833,37h14.1l7.7,29.3c2.2,8.5,3.2,11.8,4.5,18.7h0.1
			c1.3-6.6,2.2-10.5,4.6-19.1l7.8-28.9h15.9l-20.2,66.3H852L845,77.9z"/>
		<path fill="#0087CC" d="M933.2,55.8c-4.6-4.5-11-7.5-18.7-7.5c-6.3,0-10.9,2.2-10.9,6.6c0,4.7,4.6,5.7,13.9,7.7l7.9,1.8
			c10,2.4,19.1,6.1,19.1,18.3c0,15.2-13.8,22.4-29,22.4c-15.9,0-26.6-7.8-30.7-13.5l10.7-9.5c3.8,5,10.2,9.9,20.3,9.9
			c7.9,0,12.5-2.8,12.5-7.5c0-4.6-3.8-5.4-10.2-6.8l-9.9-2.1c-11.6-2.5-20.6-7.4-20.6-19.5c0-14.5,14.1-20.6,26.8-20.6
			c13.2,0,23.4,5.9,27.7,10.6L933.2,55.8z"/>
		<polygon fill="#666666" points="143,12 143,20 173,20 173,104 181,104 181,20 212,20 212,12 		"/>
		<polygon fill="#666666" points="307,12 307,20 339,20 339,104 347,104 347,20 377,20 377,12 		"/>
		<path fill="#0087CC" d="M90.5,0.7c-19.3,0-36.1,10.5-45.1,26V3.1H0v25.3h13.3v74.6h32.2V79c9,15.5,25.8,26,45.1,26
			c28.8,0,52.1-23.3,52.1-52.1C142.7,24.1,119.3,0.7,90.5,0.7z M111.3,81L90.5,65.9L69.8,81l7.9-24.4L56.9,41.5h25.7L90.5,17
			l7.9,24.4h25.7l-20.8,15.1L111.3,81z"/>
	</g>
	<g>
		<path d="M937.5,33.7h-1.5V21.6h-4.5v-1.4H942v1.4h-4.5V33.7z"/>
		<path d="M951.4,30L951.4,30l-5-7.2v10.9h-1.5V20.2h1.5l4.9,7.4l4.9-7.4h1.5v13.5h-1.5v-11L951.4,30z"/>
	</g>
</g>
</svg>
